<mxfile host="65bd71144e">
    <diagram id="n0QeIspwLPdHSCM2HYOm" name="Page-1">
        <mxGraphModel dx="3078" dy="1360" grid="0" gridSize="10" guides="1" tooltips="1" connect="1" arrows="1" fold="1" page="0" pageScale="1" pageWidth="827" pageHeight="1169" background="none" math="0" shadow="0">
            <root>
                <mxCell id="0"/>
                <mxCell id="1" parent="0"/>
                <mxCell id="116" value="" style="rounded=0;whiteSpace=wrap;html=1;fillColor=#CCE5FF;" vertex="1" parent="1">
                    <mxGeometry x="598" y="982" width="812" height="298" as="geometry"/>
                </mxCell>
                <mxCell id="113" value="" style="rounded=0;whiteSpace=wrap;html=1;fontColor=#FF0000;gradientColor=none;strokeColor=none;fillColor=#FFCCCC;" vertex="1" parent="1">
                    <mxGeometry x="596" y="300" width="814" height="650" as="geometry"/>
                </mxCell>
                <mxCell id="110" value="CompressDataTextMIG( dataTextWork )" style="html=1;verticalAlign=bottom;endArrow=block;entryX=0;entryY=0;" edge="1" target="109" parent="1" source="4">
                    <mxGeometry relative="1" as="geometry">
                        <mxPoint x="1050" y="1520" as="sourcePoint"/>
                    </mxGeometry>
                </mxCell>
                <mxCell id="100" value="SetUpAsDefault()&lt;br&gt;// 初期化" style="html=1;verticalAlign=bottom;endArrow=block;entryX=0;entryY=0;" edge="1" parent="1">
                    <mxGeometry relative="1" as="geometry">
                        <mxPoint x="631" y="1110" as="sourcePoint"/>
                        <mxPoint x="954" y="1110" as="targetPoint"/>
                    </mxGeometry>
                </mxCell>
                <mxCell id="78" value="static&lt;br&gt;GetMappingArray( CURRENT_VERSION )" style="html=1;verticalAlign=bottom;endArrow=block;entryX=0;entryY=0;" edge="1" target="77" parent="1" source="6">
                    <mxGeometry x="-0.0016" relative="1" as="geometry">
                        <mxPoint x="856" y="365" as="sourcePoint"/>
                        <mxPoint as="offset"/>
                    </mxGeometry>
                </mxCell>
                <mxCell id="9" value="SaveSystem()" style="html=1;verticalAlign=bottom;endArrow=block;entryX=0;entryY=0;" edge="1" target="8" parent="1">
                    <mxGeometry relative="1" as="geometry">
                        <mxPoint x="625.5" y="338" as="sourcePoint"/>
                        <mxPoint as="offset"/>
                    </mxGeometry>
                </mxCell>
                <mxCell id="36" value="static&lt;br&gt;encodeToURL()" style="html=1;verticalAlign=bottom;endArrow=block;entryX=0;entryY=0;" edge="1" target="35" parent="1" source="3">
                    <mxGeometry relative="1" as="geometry">
                        <mxPoint x="265" y="200" as="sourcePoint"/>
                    </mxGeometry>
                </mxCell>
                <mxCell id="33" value="onClickUrlOutMIG()" style="html=1;verticalAlign=bottom;endArrow=block;entryX=0;entryY=0;movable=1;resizable=1;rotatable=1;deletable=1;editable=1;connectable=1;" edge="1" target="32" parent="1" source="2">
                    <mxGeometry x="0.0037" relative="1" as="geometry">
                        <mxPoint x="135" y="180" as="sourcePoint"/>
                        <mxPoint as="offset"/>
                    </mxGeometry>
                </mxCell>
                <mxCell id="2" value="ro4/m/js/&lt;br&gt;calcx.html" style="shape=umlLifeline;perimeter=lifelinePerimeter;whiteSpace=wrap;html=1;container=1;collapsible=0;recursiveResize=0;outlineConnect=0;" vertex="1" parent="1">
                    <mxGeometry x="20" y="100" width="100" height="1540" as="geometry"/>
                </mxCell>
                <mxCell id="58" value="" style="html=1;points=[];perimeter=orthogonalPerimeter;gradientColor=none;" vertex="1" parent="2">
                    <mxGeometry x="45" y="70" width="10" height="1470" as="geometry"/>
                </mxCell>
                <mxCell id="3" value="ro4/m/js/&lt;br&gt;saveload.js" style="shape=umlLifeline;perimeter=lifelinePerimeter;whiteSpace=wrap;html=1;container=1;collapsible=0;recursiveResize=0;outlineConnect=0;" vertex="1" parent="1">
                    <mxGeometry x="160" y="100" width="100" height="1520" as="geometry"/>
                </mxCell>
                <mxCell id="32" value="" style="html=1;points=[];perimeter=orthogonalPerimeter;" vertex="1" parent="3">
                    <mxGeometry x="45" y="80" width="10" height="1440" as="geometry"/>
                </mxCell>
                <mxCell id="4" value="ro4/m/js/&lt;br&gt;CSaveController.js" style="shape=umlLifeline;perimeter=lifelinePerimeter;whiteSpace=wrap;html=1;container=1;collapsible=0;recursiveResize=0;outlineConnect=0;" vertex="1" parent="1">
                    <mxGeometry x="280" y="100" width="134" height="1500" as="geometry"/>
                </mxCell>
                <mxCell id="75" value="new()" style="html=1;verticalAlign=bottom;endArrow=block;" edge="1" parent="4">
                    <mxGeometry width="80" relative="1" as="geometry">
                        <mxPoint x="70" y="160" as="sourcePoint"/>
                        <mxPoint x="280" y="160" as="targetPoint"/>
                    </mxGeometry>
                </mxCell>
                <mxCell id="73" value="calc()&lt;br&gt;// 自動計算が&lt;br&gt;// 無効化されている場合を&lt;br&gt;// 想定した処理" style="html=1;verticalAlign=bottom;endArrow=block;entryX=-0.022;entryY=0.089;entryDx=0;entryDy=0;entryPerimeter=0;align=left;" edge="1" parent="4" target="67">
                    <mxGeometry x="-0.8138" width="80" relative="1" as="geometry">
                        <mxPoint x="70" y="120" as="sourcePoint"/>
                        <mxPoint x="150" y="120" as="targetPoint"/>
                        <mxPoint as="offset"/>
                    </mxGeometry>
                </mxCell>
                <mxCell id="35" value="" style="html=1;points=[];perimeter=orthogonalPerimeter;" vertex="1" parent="4">
                    <mxGeometry x="62" y="100" width="10" height="1400" as="geometry"/>
                </mxCell>
                <mxCell id="5" value="ro4/m/js/&lt;br&gt;CSaveDataManager.js" style="shape=umlLifeline;perimeter=lifelinePerimeter;whiteSpace=wrap;html=1;container=1;collapsible=0;recursiveResize=0;outlineConnect=0;" vertex="1" parent="1">
                    <mxGeometry x="561" y="241" width="130" height="1250" as="geometry"/>
                </mxCell>
                <mxCell id="98" value="new( unitType )&lt;br&gt;// 「装備可能アイテム」のセーブデータ形式を指定" style="html=1;verticalAlign=bottom;endArrow=block;entryX=0;entryY=0.067;entryDx=0;entryDy=0;entryPerimeter=0;" edge="1" parent="5" target="97">
                    <mxGeometry width="80" relative="1" as="geometry">
                        <mxPoint x="70" y="819" as="sourcePoint"/>
                        <mxPoint x="150" y="819" as="targetPoint"/>
                        <mxPoint as="offset"/>
                    </mxGeometry>
                </mxCell>
                <mxCell id="89" value="new()" style="html=1;verticalAlign=bottom;endArrow=block;" edge="1" parent="5">
                    <mxGeometry x="-0.0588" width="80" relative="1" as="geometry">
                        <mxPoint x="70" y="399" as="sourcePoint"/>
                        <mxPoint x="240" y="399" as="targetPoint"/>
                        <mxPoint as="offset"/>
                    </mxGeometry>
                </mxCell>
                <mxCell id="38" value="" style="html=1;points=[];perimeter=orthogonalPerimeter;gradientColor=none;" vertex="1" parent="5">
                    <mxGeometry x="60" y="70" width="10" height="1180" as="geometry"/>
                </mxCell>
                <mxCell id="41" value="" style="html=1;points=[];perimeter=orthogonalPerimeter;gradientColor=none;" vertex="1" parent="5">
                    <mxGeometry x="65" y="368" width="10" height="352" as="geometry"/>
                </mxCell>
                <mxCell id="42" value="parseDataText( dataText )" style="edgeStyle=orthogonalEdgeStyle;html=1;align=left;spacingLeft=2;endArrow=block;rounded=0;entryX=1;entryY=0;" edge="1" target="41" parent="5">
                    <mxGeometry relative="1" as="geometry">
                        <mxPoint x="70" y="348" as="sourcePoint"/>
                        <Array as="points">
                            <mxPoint x="100" y="348"/>
                        </Array>
                    </mxGeometry>
                </mxCell>
                <mxCell id="47" value="" style="html=1;points=[];perimeter=orthogonalPerimeter;gradientColor=none;" vertex="1" parent="5">
                    <mxGeometry x="65" y="773" width="10" height="247" as="geometry"/>
                </mxCell>
                <mxCell id="48" value="collectionDataShadowEquips()&lt;br&gt;&amp;nbsp;// saveDataUnitArray にデータを追加する" style="edgeStyle=orthogonalEdgeStyle;html=1;align=left;spacingLeft=2;endArrow=block;rounded=0;entryX=1;entryY=0;" edge="1" target="47" parent="5">
                    <mxGeometry relative="1" as="geometry">
                        <mxPoint x="70" y="753" as="sourcePoint"/>
                        <Array as="points">
                            <mxPoint x="100" y="753"/>
                        </Array>
                    </mxGeometry>
                </mxCell>
                <mxCell id="52" value="" style="html=1;points=[];perimeter=orthogonalPerimeter;gradientColor=none;" vertex="1" parent="5">
                    <mxGeometry x="65" y="1079" width="10" height="40" as="geometry"/>
                </mxCell>
                <mxCell id="53" value="doCompaction()&lt;br&gt;&amp;nbsp;// saveDataUnitArray を整理・圧縮する" style="edgeStyle=orthogonalEdgeStyle;html=1;align=left;spacingLeft=2;endArrow=block;rounded=0;entryX=1;entryY=0;" edge="1" target="52" parent="5">
                    <mxGeometry relative="1" as="geometry">
                        <mxPoint x="70" y="1059" as="sourcePoint"/>
                        <Array as="points">
                            <mxPoint x="100" y="1059"/>
                        </Array>
                    </mxGeometry>
                </mxCell>
                <mxCell id="107" value="" style="html=1;points=[];perimeter=orthogonalPerimeter;gradientColor=none;" vertex="1" parent="5">
                    <mxGeometry x="65" y="1169" width="10" height="40" as="geometry"/>
                </mxCell>
                <mxCell id="108" value="saveDataUnitArray に格納されたセーブデータ毎に encodeToURL() を呼び出し&lt;br&gt;saveDataUnitArray から dataTextWork へ変換する" style="edgeStyle=orthogonalEdgeStyle;html=1;align=left;spacingLeft=2;endArrow=block;rounded=0;entryX=1;entryY=0;" edge="1" target="107" parent="5">
                    <mxGeometry relative="1" as="geometry">
                        <mxPoint x="70" y="1149" as="sourcePoint"/>
                        <Array as="points">
                            <mxPoint x="100" y="1149"/>
                        </Array>
                    </mxGeometry>
                </mxCell>
                <mxCell id="6" value="roro/m/js/&lt;br&gt;saveload.js" style="shape=umlLifeline;perimeter=lifelinePerimeter;whiteSpace=wrap;html=1;container=1;collapsible=0;recursiveResize=0;outlineConnect=0;" vertex="1" parent="1">
                    <mxGeometry x="791" y="100" width="100" height="480" as="geometry"/>
                </mxCell>
                <mxCell id="8" value="" style="html=1;points=[];perimeter=orthogonalPerimeter;" vertex="1" parent="6">
                    <mxGeometry x="45" y="238" width="10" height="232" as="geometry"/>
                </mxCell>
                <mxCell id="80" value="" style="html=1;points=[];perimeter=orthogonalPerimeter;gradientColor=none;" vertex="1" parent="6">
                    <mxGeometry x="50" y="350" width="10" height="110" as="geometry"/>
                </mxCell>
                <mxCell id="81" value="saveDataMappingArray を使ってSaveData 配列を初期化し&lt;br&gt;HTMLエレメントや変数から計算機の値を収集して配列を形成する&lt;b&gt;&lt;font color=&quot;#ff0000&quot;&gt;&lt;br&gt;メンテナンス性を落としている原因箇所&lt;/font&gt;&lt;/b&gt;" style="edgeStyle=orthogonalEdgeStyle;html=1;align=left;spacingLeft=2;endArrow=block;rounded=0;entryX=1;entryY=0;" edge="1" target="80" parent="6">
                    <mxGeometry relative="1" as="geometry">
                        <mxPoint x="55" y="330" as="sourcePoint"/>
                        <Array as="points">
                            <mxPoint x="85" y="330"/>
                        </Array>
                    </mxGeometry>
                </mxCell>
                <mxCell id="16" value="ro4/m/js/&lt;br&gt;CSaveDataUnit.js&lt;br&gt;&amp;lt;CSaveDataUnitParse&amp;gt;" style="shape=umlLifeline;perimeter=lifelinePerimeter;whiteSpace=wrap;html=1;container=1;collapsible=0;recursiveResize=0;outlineConnect=0;" vertex="1" parent="1">
                    <mxGeometry x="801" y="620" width="150" height="340" as="geometry"/>
                </mxCell>
                <mxCell id="95" value="parse( dataText )&lt;br&gt;// ユニット毎に定義されたメソッドを呼び出す" style="html=1;verticalAlign=bottom;endArrow=block;entryX=0;entryY=0;align=left;" edge="1" target="94" parent="16">
                    <mxGeometry x="-0.8431" relative="1" as="geometry">
                        <mxPoint x="70" y="220" as="sourcePoint"/>
                        <mxPoint as="offset"/>
                    </mxGeometry>
                </mxCell>
                <mxCell id="93" value="new()" style="html=1;verticalAlign=bottom;endArrow=block;" edge="1" parent="16">
                    <mxGeometry width="80" relative="1" as="geometry">
                        <mxPoint x="70" y="160" as="sourcePoint"/>
                        <mxPoint x="260" y="160" as="targetPoint"/>
                    </mxGeometry>
                </mxCell>
                <mxCell id="43" value="" style="html=1;points=[];perimeter=orthogonalPerimeter;gradientColor=none;" vertex="1" parent="16">
                    <mxGeometry x="65" y="60" width="10" height="250" as="geometry"/>
                </mxCell>
                <mxCell id="90" value="" style="html=1;points=[];perimeter=orthogonalPerimeter;gradientColor=none;" vertex="1" parent="16">
                    <mxGeometry x="70" y="105" width="10" height="40" as="geometry"/>
                </mxCell>
                <mxCell id="91" value="translateFromOldFormat( dataText )&lt;br&gt;&amp;nbsp;// 文字列表現が ba*** から cx*** の形式に変換される" style="edgeStyle=orthogonalEdgeStyle;html=1;align=left;spacingLeft=2;endArrow=block;rounded=0;entryX=1;entryY=0;" edge="1" target="90" parent="16">
                    <mxGeometry x="0.0133" relative="1" as="geometry">
                        <mxPoint x="75" y="85" as="sourcePoint"/>
                        <Array as="points">
                            <mxPoint x="105" y="85"/>
                        </Array>
                        <mxPoint as="offset"/>
                    </mxGeometry>
                </mxCell>
                <mxCell id="10" value="dataText" style="html=1;verticalAlign=bottom;endArrow=open;dashed=1;endSize=8;exitX=0;exitY=0.95;" edge="1" source="8" parent="1" target="38">
                    <mxGeometry relative="1" as="geometry">
                        <mxPoint x="631" y="376" as="targetPoint"/>
                        <mxPoint as="offset"/>
                    </mxGeometry>
                </mxCell>
                <mxCell id="44" value="parse( dataText )" style="html=1;verticalAlign=bottom;endArrow=block;entryX=0;entryY=0;" edge="1" target="43" parent="1" source="41">
                    <mxGeometry relative="1" as="geometry">
                        <mxPoint x="836" y="649" as="sourcePoint"/>
                    </mxGeometry>
                </mxCell>
                <mxCell id="45" value="saveDataUnitArray&lt;br&gt;// dataText から変換された&lt;br&gt;// 全ての unitInstance の配列" style="html=1;verticalAlign=bottom;endArrow=open;dashed=1;endSize=8;exitX=0;exitY=0.95;align=left;" edge="1" source="43" parent="1" target="41">
                    <mxGeometry x="0.8148" relative="1" as="geometry">
                        <mxPoint x="836" y="725" as="targetPoint"/>
                        <mxPoint as="offset"/>
                    </mxGeometry>
                </mxCell>
                <mxCell id="54" value="" style="shape=umlLifeline;participant=umlActor;perimeter=lifelinePerimeter;whiteSpace=wrap;html=1;container=1;collapsible=0;recursiveResize=0;verticalAlign=top;spacingTop=36;outlineConnect=0;gradientColor=none;" vertex="1" parent="1">
                    <mxGeometry x="-50" y="100" width="20" height="1580" as="geometry"/>
                </mxCell>
                <mxCell id="59" value="URL出力" style="html=1;verticalAlign=bottom;startArrow=oval;endArrow=block;startSize=8;" edge="1" target="58" parent="1">
                    <mxGeometry relative="1" as="geometry">
                        <mxPoint x="-40" y="170" as="sourcePoint"/>
                    </mxGeometry>
                </mxCell>
                <mxCell id="60" value="ro4/m/js/&lt;br&gt;head.js" style="shape=umlLifeline;perimeter=lifelinePerimeter;whiteSpace=wrap;html=1;container=1;collapsible=0;recursiveResize=0;outlineConnect=0;" vertex="1" parent="1">
                    <mxGeometry x="460" y="100" width="100" height="150" as="geometry"/>
                </mxCell>
                <mxCell id="67" value="" style="html=1;points=[];perimeter=orthogonalPerimeter;gradientColor=none;" vertex="1" parent="60">
                    <mxGeometry x="45" y="118" width="10" height="20" as="geometry"/>
                </mxCell>
                <mxCell id="37" value="encoded" style="html=1;verticalAlign=bottom;endArrow=open;dashed=1;endSize=8;exitX=0.382;exitY=1;exitDx=0;exitDy=0;exitPerimeter=0;" edge="1" source="35" parent="1">
                    <mxGeometry relative="1" as="geometry">
                        <mxPoint x="220" y="1600" as="targetPoint"/>
                    </mxGeometry>
                </mxCell>
                <mxCell id="74" value="encodeToURL()" style="html=1;verticalAlign=bottom;endArrow=block;" edge="1" parent="1">
                    <mxGeometry relative="1" as="geometry">
                        <mxPoint x="352" y="311.0139999999999" as="sourcePoint"/>
                        <mxPoint x="620" y="310" as="targetPoint"/>
                    </mxGeometry>
                </mxCell>
                <mxCell id="76" value="roro/m/js/&lt;br&gt;CSaveDataMappingManager.js" style="shape=umlLifeline;perimeter=lifelinePerimeter;whiteSpace=wrap;html=1;container=1;collapsible=0;recursiveResize=0;outlineConnect=0;gradientColor=none;" vertex="1" parent="1">
                    <mxGeometry x="991" y="100" width="180" height="310" as="geometry"/>
                </mxCell>
                <mxCell id="77" value="" style="html=1;points=[];perimeter=orthogonalPerimeter;gradientColor=none;" vertex="1" parent="76">
                    <mxGeometry x="85" y="265" width="10" height="35" as="geometry"/>
                </mxCell>
                <mxCell id="79" value="saveDataMappingArray" style="html=1;verticalAlign=bottom;endArrow=open;dashed=1;endSize=8;exitX=0;exitY=0.95;" edge="1" source="77" parent="1">
                    <mxGeometry x="0.0017" relative="1" as="geometry">
                        <mxPoint x="851" y="400" as="targetPoint"/>
                        <mxPoint as="offset"/>
                    </mxGeometry>
                </mxCell>
                <mxCell id="82" value="roro/m/js/&lt;br&gt;CSaveDataConveter.js" style="shape=umlLifeline;perimeter=lifelinePerimeter;whiteSpace=wrap;html=1;container=1;collapsible=0;recursiveResize=0;outlineConnect=0;gradientColor=none;" vertex="1" parent="1">
                    <mxGeometry x="1191" y="100" width="150" height="1510" as="geometry"/>
                </mxCell>
                <mxCell id="86" value="" style="html=1;points=[];perimeter=orthogonalPerimeter;gradientColor=none;" vertex="1" parent="82">
                    <mxGeometry x="70" y="387.5" width="10" height="52.5" as="geometry"/>
                </mxCell>
                <mxCell id="109" value="" style="html=1;points=[];perimeter=orthogonalPerimeter;gradientColor=none;" vertex="1" parent="82">
                    <mxGeometry x="70" y="1420" width="10" height="30" as="geometry"/>
                </mxCell>
                <mxCell id="87" value="static&lt;br&gt;ConvertNtoS( SaveData 配列 )" style="html=1;verticalAlign=bottom;endArrow=block;entryX=0;entryY=0;" edge="1" target="86" parent="1" source="80">
                    <mxGeometry relative="1" as="geometry">
                        <mxPoint x="791" y="485" as="sourcePoint"/>
                    </mxGeometry>
                </mxCell>
                <mxCell id="88" value="ASCII表現に変換された SaveData 配列&lt;br&gt;// これを dataText として返す" style="html=1;verticalAlign=bottom;endArrow=open;dashed=1;endSize=8;exitX=0;exitY=0.95;entryX=1;entryY=0.782;entryDx=0;entryDy=0;entryPerimeter=0;" edge="1" source="86" parent="1" target="80">
                    <mxGeometry relative="1" as="geometry">
                        <mxPoint x="791" y="561" as="targetPoint"/>
                    </mxGeometry>
                </mxCell>
                <mxCell id="92" value="ro4/m/js&lt;br&gt;CSaveDataUnit.js&lt;br&gt;&amp;lt;CSaveDataUnitVersion&amp;gt;" style="shape=umlLifeline;perimeter=lifelinePerimeter;whiteSpace=wrap;html=1;container=1;collapsible=0;recursiveResize=0;outlineConnect=0;gradientColor=none;" vertex="1" parent="1">
                    <mxGeometry x="1061" y="760" width="160" height="160" as="geometry"/>
                </mxCell>
                <mxCell id="94" value="" style="html=1;points=[];perimeter=orthogonalPerimeter;gradientColor=none;" vertex="1" parent="92">
                    <mxGeometry x="75" y="80" width="10" height="50" as="geometry"/>
                </mxCell>
                <mxCell id="96" value="unitInstance" style="html=1;verticalAlign=bottom;endArrow=open;dashed=1;endSize=8;exitX=0;exitY=0.95;" edge="1" source="94" parent="1">
                    <mxGeometry relative="1" as="geometry">
                        <mxPoint x="875.5" y="887.5" as="targetPoint"/>
                    </mxGeometry>
                </mxCell>
                <mxCell id="97" value="ro4/m/js/&lt;br&gt;CSaveDataUnit.js" style="shape=umlLifeline;perimeter=lifelinePerimeter;whiteSpace=wrap;html=1;container=1;collapsible=0;recursiveResize=0;outlineConnect=0;gradientColor=none;" vertex="1" parent="1">
                    <mxGeometry x="901" y="1040" width="115" height="300" as="geometry"/>
                </mxCell>
                <mxCell id="102" value="" style="html=1;points=[];perimeter=orthogonalPerimeter;gradientColor=none;" vertex="1" parent="97">
                    <mxGeometry x="52.5" y="50" width="10" height="150" as="geometry"/>
                </mxCell>
                <mxCell id="106" value="saveDataUnitArray に セーブデータを追加して返す" style="html=1;verticalAlign=bottom;endArrow=open;dashed=1;endSize=8;entryX=1;entryY=0.907;entryDx=0;entryDy=0;entryPerimeter=0;" edge="1" parent="97" target="47">
                    <mxGeometry relative="1" as="geometry">
                        <mxPoint x="52.5" y="200" as="sourcePoint"/>
                        <mxPoint x="-27.5" y="200" as="targetPoint"/>
                    </mxGeometry>
                </mxCell>
                <mxCell id="103" value="setProp( Key, Value )&lt;br&gt;// 計算機の値を格納" style="html=1;verticalAlign=bottom;endArrow=block;" edge="1" parent="1">
                    <mxGeometry width="80" relative="1" as="geometry">
                        <mxPoint x="636" y="1153" as="sourcePoint"/>
                        <mxPoint x="951" y="1153" as="targetPoint"/>
                    </mxGeometry>
                </mxCell>
                <mxCell id="105" value="doCompaction()&lt;br&gt;// データ整形と圧縮" style="html=1;verticalAlign=bottom;endArrow=block;" edge="1" parent="1" source="47">
                    <mxGeometry width="80" relative="1" as="geometry">
                        <mxPoint x="871" y="1200" as="sourcePoint"/>
                        <mxPoint x="951" y="1200" as="targetPoint"/>
                    </mxGeometry>
                </mxCell>
                <mxCell id="40" value="dataTextWork" style="html=1;verticalAlign=bottom;endArrow=open;dashed=1;endSize=8;exitX=-0.2;exitY=1.001;exitDx=0;exitDy=0;exitPerimeter=0;" edge="1" source="38" parent="1" target="35">
                    <mxGeometry relative="1" as="geometry">
                        <mxPoint x="320" y="1492" as="targetPoint"/>
                        <mxPoint x="480" y="1159.2999999999988" as="sourcePoint"/>
                    </mxGeometry>
                </mxCell>
                <mxCell id="34" value="urlText" style="html=1;verticalAlign=bottom;endArrow=open;dashed=1;endSize=8;exitX=-0.233;exitY=1;exitDx=0;exitDy=0;exitPerimeter=0;entryX=1.137;entryY=0.987;entryDx=0;entryDy=0;entryPerimeter=0;" edge="1" source="32" parent="1" target="58">
                    <mxGeometry relative="1" as="geometry">
                        <mxPoint x="80" y="1570" as="targetPoint"/>
                    </mxGeometry>
                </mxCell>
                <mxCell id="111" value="encoded" style="html=1;verticalAlign=bottom;endArrow=open;dashed=1;endSize=8;exitX=0;exitY=0.95;" edge="1" source="109" parent="1">
                    <mxGeometry relative="1" as="geometry">
                        <mxPoint x="350" y="1549" as="targetPoint"/>
                    </mxGeometry>
                </mxCell>
                <mxCell id="112" value="URLを表示" style="html=1;verticalAlign=bottom;endArrow=open;dashed=1;endSize=8;exitX=0.084;exitY=1;exitDx=0;exitDy=0;exitPerimeter=0;" edge="1" parent="1" source="58" target="54">
                    <mxGeometry relative="1" as="geometry">
                        <mxPoint x="60" y="1640" as="sourcePoint"/>
                        <mxPoint x="-20" y="1640" as="targetPoint"/>
                    </mxGeometry>
                </mxCell>
                <mxCell id="115" value="旧バージョンセーブデータ処理" style="text;html=1;strokeColor=none;fillColor=none;align=center;verticalAlign=middle;whiteSpace=wrap;rounded=0;fontStyle=1" vertex="1" parent="1">
                    <mxGeometry x="1204" y="313" width="206" height="30" as="geometry"/>
                </mxCell>
                <mxCell id="119" value="新バージョンセーブデータ処理" style="text;html=1;strokeColor=none;fillColor=none;align=center;verticalAlign=middle;whiteSpace=wrap;rounded=0;fontStyle=1" vertex="1" parent="1">
                    <mxGeometry x="1204" y="995" width="206" height="30" as="geometry"/>
                </mxCell>
            </root>
        </mxGraphModel>
    </diagram>
</mxfile>